<mxfile host="app.diagrams.net" agent="Mozilla/5.0 (Windows NT 10.0; Win64; x64) AppleWebKit/537.36 (KHTML, like Gecko) Chrome/132.0.0.0 Safari/537.36 OPR/117.0.0.0" version="26.1.0">
  <diagram name="1 oldal" id="YWtAC89HujiaDL-LnzYn">
    <mxGraphModel grid="1" page="1" gridSize="10" guides="1" tooltips="1" connect="1" arrows="1" fold="1" pageScale="1" pageWidth="827" pageHeight="1169" math="0" shadow="0">
      <root>
        <mxCell id="0" />
        <mxCell id="1" parent="0" />
        <mxCell id="x4IdtSf-bW3GLoUPFYO_-1" value="" style="rounded=0;whiteSpace=wrap;html=1;" vertex="1" parent="1">
          <mxGeometry x="160" y="210" width="120" height="60" as="geometry" />
        </mxCell>
        <mxCell id="x4IdtSf-bW3GLoUPFYO_-2" value="" style="ellipse;whiteSpace=wrap;html=1;" vertex="1" parent="1">
          <mxGeometry x="170" y="130" width="100" height="40" as="geometry" />
        </mxCell>
        <mxCell id="x4IdtSf-bW3GLoUPFYO_-3" value="" style="rounded=0;whiteSpace=wrap;html=1;" vertex="1" parent="1">
          <mxGeometry x="480" y="210" width="120" height="60" as="geometry" />
        </mxCell>
        <mxCell id="x4IdtSf-bW3GLoUPFYO_-4" value="" style="ellipse;whiteSpace=wrap;html=1;" vertex="1" parent="1">
          <mxGeometry x="170" y="300" width="100" height="40" as="geometry" />
        </mxCell>
        <mxCell id="x4IdtSf-bW3GLoUPFYO_-5" value="" style="ellipse;whiteSpace=wrap;html=1;" vertex="1" parent="1">
          <mxGeometry x="20" y="220" width="100" height="40" as="geometry" />
        </mxCell>
        <mxCell id="x4IdtSf-bW3GLoUPFYO_-6" value="" style="ellipse;whiteSpace=wrap;html=1;" vertex="1" parent="1">
          <mxGeometry x="490" y="300" width="100" height="40" as="geometry" />
        </mxCell>
        <mxCell id="x4IdtSf-bW3GLoUPFYO_-7" value="" style="ellipse;whiteSpace=wrap;html=1;" vertex="1" parent="1">
          <mxGeometry x="640" y="220" width="100" height="40" as="geometry" />
        </mxCell>
        <mxCell id="x4IdtSf-bW3GLoUPFYO_-8" value="" style="ellipse;whiteSpace=wrap;html=1;" vertex="1" parent="1">
          <mxGeometry x="490" y="130" width="100" height="40" as="geometry" />
        </mxCell>
        <mxCell id="x4IdtSf-bW3GLoUPFYO_-9" value="" style="endArrow=none;html=1;rounded=0;entryX=0.5;entryY=1;entryDx=0;entryDy=0;exitX=0.5;exitY=0;exitDx=0;exitDy=0;" edge="1" parent="1" source="x4IdtSf-bW3GLoUPFYO_-3" target="x4IdtSf-bW3GLoUPFYO_-8">
          <mxGeometry width="50" height="50" relative="1" as="geometry">
            <mxPoint x="390" y="270" as="sourcePoint" />
            <mxPoint x="440" y="220" as="targetPoint" />
          </mxGeometry>
        </mxCell>
        <mxCell id="x4IdtSf-bW3GLoUPFYO_-10" value="" style="endArrow=none;html=1;rounded=0;entryX=0;entryY=0.5;entryDx=0;entryDy=0;exitX=1;exitY=0.5;exitDx=0;exitDy=0;" edge="1" parent="1" source="x4IdtSf-bW3GLoUPFYO_-3" target="x4IdtSf-bW3GLoUPFYO_-7">
          <mxGeometry width="50" height="50" relative="1" as="geometry">
            <mxPoint x="390" y="270" as="sourcePoint" />
            <mxPoint x="440" y="220" as="targetPoint" />
          </mxGeometry>
        </mxCell>
        <mxCell id="x4IdtSf-bW3GLoUPFYO_-11" value="" style="endArrow=none;html=1;rounded=0;exitX=0.5;exitY=0;exitDx=0;exitDy=0;entryX=0.5;entryY=1;entryDx=0;entryDy=0;" edge="1" parent="1" source="x4IdtSf-bW3GLoUPFYO_-6" target="x4IdtSf-bW3GLoUPFYO_-3">
          <mxGeometry width="50" height="50" relative="1" as="geometry">
            <mxPoint x="390" y="270" as="sourcePoint" />
            <mxPoint x="440" y="220" as="targetPoint" />
          </mxGeometry>
        </mxCell>
        <mxCell id="x4IdtSf-bW3GLoUPFYO_-13" value="" style="endArrow=none;html=1;rounded=0;entryX=0.5;entryY=1;entryDx=0;entryDy=0;exitX=0.5;exitY=0;exitDx=0;exitDy=0;" edge="1" parent="1" source="x4IdtSf-bW3GLoUPFYO_-1" target="x4IdtSf-bW3GLoUPFYO_-2">
          <mxGeometry width="50" height="50" relative="1" as="geometry">
            <mxPoint x="390" y="270" as="sourcePoint" />
            <mxPoint x="440" y="220" as="targetPoint" />
          </mxGeometry>
        </mxCell>
        <mxCell id="x4IdtSf-bW3GLoUPFYO_-14" value="" style="endArrow=none;html=1;rounded=0;entryX=0;entryY=0.5;entryDx=0;entryDy=0;exitX=1;exitY=0.5;exitDx=0;exitDy=0;" edge="1" parent="1" source="x4IdtSf-bW3GLoUPFYO_-5" target="x4IdtSf-bW3GLoUPFYO_-1">
          <mxGeometry width="50" height="50" relative="1" as="geometry">
            <mxPoint x="390" y="270" as="sourcePoint" />
            <mxPoint x="440" y="220" as="targetPoint" />
          </mxGeometry>
        </mxCell>
        <mxCell id="x4IdtSf-bW3GLoUPFYO_-15" value="" style="endArrow=none;html=1;rounded=0;entryX=0.5;entryY=1;entryDx=0;entryDy=0;exitX=0.5;exitY=0;exitDx=0;exitDy=0;" edge="1" parent="1" source="x4IdtSf-bW3GLoUPFYO_-4" target="x4IdtSf-bW3GLoUPFYO_-1">
          <mxGeometry width="50" height="50" relative="1" as="geometry">
            <mxPoint x="390" y="270" as="sourcePoint" />
            <mxPoint x="440" y="220" as="targetPoint" />
          </mxGeometry>
        </mxCell>
        <mxCell id="x4IdtSf-bW3GLoUPFYO_-16" value="" style="endArrow=classic;startArrow=classic;html=1;rounded=0;entryX=0;entryY=0.5;entryDx=0;entryDy=0;exitX=1;exitY=0.5;exitDx=0;exitDy=0;" edge="1" parent="1" source="x4IdtSf-bW3GLoUPFYO_-1" target="x4IdtSf-bW3GLoUPFYO_-3">
          <mxGeometry width="50" height="50" relative="1" as="geometry">
            <mxPoint x="390" y="270" as="sourcePoint" />
            <mxPoint x="440" y="220" as="targetPoint" />
          </mxGeometry>
        </mxCell>
        <mxCell id="x4IdtSf-bW3GLoUPFYO_-12" value="" style="rhombus;whiteSpace=wrap;html=1;" vertex="1" parent="1">
          <mxGeometry x="340" y="200" width="80" height="80" as="geometry" />
        </mxCell>
        <mxCell id="x4IdtSf-bW3GLoUPFYO_-17" value="&lt;b&gt;Auto&lt;/b&gt;" style="text;html=1;align=center;verticalAlign=middle;whiteSpace=wrap;rounded=0;" vertex="1" parent="1">
          <mxGeometry x="190" y="225" width="60" height="30" as="geometry" />
        </mxCell>
        <mxCell id="x4IdtSf-bW3GLoUPFYO_-18" value="&lt;u&gt;Alvazszam&lt;/u&gt;" style="text;html=1;align=center;verticalAlign=middle;whiteSpace=wrap;rounded=0;" vertex="1" parent="1">
          <mxGeometry x="190" y="135" width="60" height="30" as="geometry" />
        </mxCell>
        <mxCell id="x4IdtSf-bW3GLoUPFYO_-19" value="Evjarat" style="text;html=1;align=center;verticalAlign=middle;whiteSpace=wrap;rounded=0;" vertex="1" parent="1">
          <mxGeometry x="190" y="305" width="60" height="30" as="geometry" />
        </mxCell>
        <mxCell id="x4IdtSf-bW3GLoUPFYO_-20" value="Marka" style="text;html=1;align=center;verticalAlign=middle;whiteSpace=wrap;rounded=0;" vertex="1" parent="1">
          <mxGeometry x="40" y="225" width="60" height="30" as="geometry" />
        </mxCell>
        <mxCell id="x4IdtSf-bW3GLoUPFYO_-21" value="&lt;b&gt;Tulajdonos&lt;/b&gt;" style="text;html=1;align=center;verticalAlign=middle;whiteSpace=wrap;rounded=0;" vertex="1" parent="1">
          <mxGeometry x="510" y="225" width="60" height="30" as="geometry" />
        </mxCell>
        <mxCell id="x4IdtSf-bW3GLoUPFYO_-22" value="&lt;u&gt;Szem.szam&lt;/u&gt;" style="text;html=1;align=center;verticalAlign=middle;whiteSpace=wrap;rounded=0;" vertex="1" parent="1">
          <mxGeometry x="510" y="135" width="60" height="30" as="geometry" />
        </mxCell>
        <mxCell id="x4IdtSf-bW3GLoUPFYO_-23" value="A-T" style="text;html=1;align=center;verticalAlign=middle;whiteSpace=wrap;rounded=0;" vertex="1" parent="1">
          <mxGeometry x="350" y="225" width="60" height="30" as="geometry" />
        </mxCell>
        <mxCell id="x4IdtSf-bW3GLoUPFYO_-24" value="Nev" style="text;html=1;align=center;verticalAlign=middle;whiteSpace=wrap;rounded=0;" vertex="1" parent="1">
          <mxGeometry x="660" y="225" width="60" height="30" as="geometry" />
        </mxCell>
        <mxCell id="x4IdtSf-bW3GLoUPFYO_-25" value="Szul.ido" style="text;html=1;align=center;verticalAlign=middle;whiteSpace=wrap;rounded=0;" vertex="1" parent="1">
          <mxGeometry x="510" y="305" width="60" height="30" as="geometry" />
        </mxCell>
      </root>
    </mxGraphModel>
  </diagram>
</mxfile>
